<svg width="136" height="54" viewBox="0 0 136 54" fill="none" xmlns="http://www.w3.org/2000/svg">
<g clip-path="url(#clip0_109_2)">
<path d="M75.7258 3.05217C74.8202 0.838509 73.5037 0 71.9106 0H65.6637L74.1326 19.3528H82.8531L75.7258 3.05217Z" fill="#FFC52B"/>
<path d="M65.2109 3.05217C64.3053 0.838509 62.9888 0 61.3956 0H55.1487L63.6177 19.3528H72.3382L65.2109 3.05217Z" fill="#FFA300"/>
<path d="M54.6792 3.05217C53.782 0.838509 52.4571 0 50.8723 0H44.6255L53.0944 19.3528H61.8149L54.6792 3.05217Z" fill="#FF681E"/>
<path d="M42.1267 4.771H35.8127C34.2196 4.771 32.9534 5.60951 32.0478 7.89025L27.0168 19.3527H35.7373L42.1267 4.771Z" fill="#FF681E"/>
<path d="M49.2373 14.6403C48.3317 12.3763 47.1494 11.5881 45.5646 11.5881H39.1752L42.5292 19.3527H51.2916L49.2373 14.6403Z" fill="#FF681E"/>
<path d="M0 29.6663C0 21.2812 5.34969 16.0154 13.2988 16.0154C20.2668 16.0154 24.5599 19.8725 25.4991 26.4045H18.573C18.028 23.7297 16.2922 22.1533 13.5419 22.1533C9.99503 22.1533 8.34317 24.5095 8.34317 29.2387V30.0269C8.34317 34.7477 9.96149 37.1039 13.3742 37.1039C16.3258 37.1039 18.095 35.6868 18.5646 32.1902H25.6584C25.1553 39.9381 20.1242 43.2502 13.1478 43.2502C5.19876 43.2502 0 37.9759 0 29.6663Z" fill="#07746E"/>
<path d="M26.9581 37.8166C26.9581 33.7582 30.5805 32.7856 34.1609 32.0728C37.037 31.5194 39.0829 31.444 39.2423 30.4964V30.3791C39.2423 29.1968 38.496 28.5679 36.995 28.5679C35.318 28.5679 34.4795 29.3561 34.3621 30.6893V31.0247H27.436C27.5115 26.5387 30.9326 23.6626 37.0789 23.6626C43.3761 23.6626 46.5624 26.0691 46.5624 31.8464V42.7471H39.2003V40.1477C38.6081 41.1636 37.7463 41.9958 36.7104 42.5523C35.6745 43.1087 34.5048 43.3677 33.3308 43.3005C29.4317 43.3005 26.9497 41.2126 26.9497 37.8669M39.2423 36.2402V34.0014C38.4719 34.2924 37.6817 34.5278 36.8777 34.7058C35.5025 35.0999 34.3621 35.5443 34.3621 37.0704C34.3529 37.3136 34.3967 37.5559 34.4905 37.7805C34.5844 38.0051 34.726 38.2065 34.9055 38.3709C35.085 38.5352 35.2982 38.6586 35.5301 38.7323C35.7621 38.806 36.0073 38.8283 36.2488 38.7977C36.6133 38.8263 36.9798 38.7829 37.3275 38.6699C37.6752 38.5569 37.9973 38.3765 38.2752 38.139C38.5532 37.9015 38.7817 37.6116 38.9476 37.2858C39.1135 36.96 39.2136 36.6047 39.2423 36.2402Z" fill="#07746E"/>
<path d="M49.0444 24.1239H56.5155V27.2683C57.1863 25.2223 58.7627 24.04 61.6724 24.04H62.1838V31.0248H59.6683C57.0186 31.0248 56.5155 32.031 56.5155 34.2363V42.6969H49.0444V24.1239Z" fill="#07746E"/>
<path d="M63.2907 37.8166C63.2907 33.7583 66.913 32.7856 70.4935 32.0728C73.3612 31.5194 75.4071 31.444 75.5665 30.4964V30.3791C75.5665 29.1968 74.8202 28.5679 73.3276 28.5679C71.6506 28.5679 70.8121 29.3561 70.6863 30.6893V31.0247H63.7267C63.8022 26.5387 67.2317 23.6626 73.3696 23.6626C79.6668 23.6626 82.8531 26.0691 82.8531 31.8464V42.7471H75.5245V40.1477C74.9337 41.1649 74.0723 41.9982 73.036 42.5548C71.9997 43.1115 70.8292 43.3696 69.655 43.3005C65.7559 43.3005 63.2823 41.2126 63.2823 37.8669M75.5581 36.2905V34.0014C74.7877 34.2924 73.9975 34.5278 73.1935 34.7058C71.8183 35.0999 70.6779 35.5443 70.6779 37.0704C70.6687 37.3136 70.7125 37.5559 70.8064 37.7805C70.9002 38.0051 71.0418 38.2065 71.2213 38.3709C71.4008 38.5352 71.614 38.6586 71.8459 38.7323C72.0779 38.806 72.3231 38.8283 72.5646 38.7977C72.9291 38.8263 73.2956 38.7829 73.6433 38.6699C73.991 38.5569 74.3131 38.3765 74.591 38.139C74.869 37.9015 75.0975 37.6116 75.2634 37.2858C75.4293 36.96 75.5295 36.6047 75.5581 36.2402" fill="#07746E"/>
<path d="M83.7168 44.7848H85.05C86.073 44.7848 86.3916 44.4243 86.3916 43.1078V24.124H93.7873V42.8143C93.7873 48.6839 90.6429 49.7824 85.486 49.7824H83.7168V44.7848ZM86.3162 16.6025H93.8627V22.1535H86.3162V16.6025Z" fill="#07746E"/>
<path d="M95.8752 37.8166C95.8752 33.7582 99.4975 32.7856 103.078 32.0728C105.954 31.5194 108 31.444 108.159 30.4964V30.3791C108.159 29.1968 107.405 28.5679 105.912 28.5679C104.235 28.5679 103.397 29.3561 103.279 30.6893V31.0247H96.3447C96.4286 26.5387 99.8497 23.6626 105.988 23.6626C112.285 23.6626 115.48 26.0691 115.48 31.8464V42.7471H108.117V40.1477C107.524 41.1629 106.663 41.9946 105.627 42.551C104.591 43.1073 103.422 43.3667 102.248 43.3005C98.3571 43.3005 95.8752 41.2126 95.8752 37.8669M108.168 36.2402V34.0014C107.397 34.2912 106.607 34.5266 105.803 34.7058C104.428 35.0999 103.288 35.5443 103.288 37.0704C103.278 37.3136 103.322 37.5559 103.416 37.7805C103.51 38.0051 103.651 38.2065 103.831 38.3709C104.01 38.5352 104.224 38.6586 104.456 38.7323C104.688 38.806 104.933 38.8283 105.174 38.7977C105.91 38.8533 106.638 38.6155 107.198 38.1364C107.759 37.6572 108.108 36.9755 108.168 36.2402Z" fill="#07746E"/>
<path d="M117.207 40.1394L120.511 36.4751C121.992 37.8961 123.936 38.7356 125.986 38.8397C127.202 38.8397 127.99 38.4456 127.99 37.6574C127.99 36.6764 126.38 36.3997 124.217 35.8882C121.299 35.1755 117.643 33.8842 117.643 29.9012C117.643 26.1699 121.064 23.5286 125.785 23.5286C129.977 23.5286 132.795 24.7528 134.799 26.6814C134.799 26.8323 131.73 30.2199 131.73 30.2199C130.28 28.8653 128.396 28.0691 126.414 27.9727C125.198 27.9727 124.527 28.4087 124.527 29.155C124.527 30.1444 125.634 30.3373 127.99 30.832C130.942 31.5615 135 32.7019 135 36.8944C135 40.718 131.453 43.309 126.69 43.309C122.322 43.309 119.412 42.0512 117.207 40.1646" fill="#07746E"/>
<path d="M112.151 16.5857H106.952C105.736 16.5857 104.772 17.2397 104.084 18.9671L102.692 22.1115H109.719L112.151 16.5857Z" fill="#07746E"/>
</g>
<path d="M20.8815 51.7639V45.0434H23.7022C24.0051 45.0434 24.2828 45.1065 24.5352 45.2327C24.7876 45.3589 25.0085 45.5261 25.1978 45.7343C25.3871 45.9426 25.5322 46.1761 25.6332 46.4348C25.7342 46.6935 25.7847 46.9586 25.7847 47.2299C25.7847 47.6022 25.6995 47.9588 25.5291 48.2995C25.365 48.634 25.1284 48.9053 24.8192 49.1136C24.5163 49.3218 24.1629 49.4259 23.759 49.4259H21.9416V51.7639H20.8815ZM21.9416 48.4888H23.6928C23.8947 48.4888 24.0714 48.4352 24.2228 48.3279C24.3743 48.2143 24.491 48.0629 24.5731 47.8736C24.6614 47.6843 24.7056 47.4697 24.7056 47.2299C24.7056 46.9838 24.6551 46.7661 24.5541 46.5768C24.4532 46.3875 24.3206 46.2423 24.1566 46.1414C23.9988 46.0341 23.8253 45.9804 23.636 45.9804H21.9416V48.4888ZM26.6559 44.854H27.6971V50.3346C27.6971 50.587 27.735 50.7479 27.8107 50.8174C27.8865 50.8868 27.9811 50.9215 28.0947 50.9215C28.2209 50.9215 28.3376 50.9089 28.4449 50.8836C28.5585 50.8584 28.6563 50.8268 28.7384 50.789L28.8898 51.6125C28.7384 51.6756 28.5585 51.7292 28.3503 51.7734C28.142 51.8176 27.9559 51.8396 27.7918 51.8396C27.4384 51.8396 27.1608 51.7418 26.9588 51.5462C26.7569 51.3443 26.6559 51.0666 26.6559 50.7132V44.854ZM29.1338 50.3157C29.1338 50.0002 29.2222 49.7257 29.3989 49.4922C29.5819 49.2524 29.8311 49.0694 30.1467 48.9432C30.4622 48.8107 30.8282 48.7444 31.2447 48.7444C31.4655 48.7444 31.6895 48.7602 31.9167 48.7917C32.1502 48.8233 32.3553 48.8738 32.532 48.9432V48.6308C32.532 48.2837 32.4279 48.0124 32.2196 47.8168C32.0114 47.6211 31.7116 47.5233 31.3204 47.5233C31.0427 47.5233 30.7809 47.5738 30.5347 47.6748C30.2886 47.7694 30.0268 47.9051 29.7491 48.0818L29.3989 47.3814C29.727 47.1605 30.0552 46.9964 30.3833 46.8891C30.7177 46.7819 31.068 46.7282 31.434 46.7282C32.0966 46.7282 32.6172 46.9049 32.9958 47.2583C33.3807 47.6054 33.5732 48.1007 33.5732 48.7444V50.5902C33.5732 50.7101 33.5921 50.7953 33.63 50.8458C33.6742 50.8962 33.7467 50.9246 33.8477 50.9309V51.7639C33.753 51.7828 33.6679 51.7955 33.5921 51.8018C33.5164 51.8081 33.4533 51.8112 33.4028 51.8112C33.182 51.8112 33.0147 51.7576 32.9011 51.6503C32.7876 51.5431 32.7213 51.4168 32.7024 51.2717L32.674 50.9877C32.4594 51.2654 32.1849 51.4799 31.8505 51.6314C31.516 51.7828 31.1784 51.8586 30.8376 51.8586C30.5095 51.8586 30.2161 51.7923 29.9573 51.6598C29.6986 51.521 29.4967 51.3348 29.3515 51.1013C29.2064 50.8678 29.1338 50.606 29.1338 50.3157ZM32.2859 50.6186C32.3616 50.5365 32.4216 50.4545 32.4657 50.3725C32.5099 50.2904 32.532 50.2179 32.532 50.1548V49.5868C32.3553 49.5174 32.1691 49.4669 31.9735 49.4354C31.7779 49.3975 31.5854 49.3786 31.3961 49.3786C31.0175 49.3786 30.7083 49.4543 30.4685 49.6058C30.235 49.7572 30.1183 49.9655 30.1183 50.2305C30.1183 50.3756 30.1561 50.5145 30.2318 50.647C30.3139 50.7795 30.4275 50.8868 30.5726 50.9688C30.7241 51.0508 30.9102 51.0919 31.1311 51.0919C31.3583 51.0919 31.576 51.0477 31.7842 50.9593C31.9924 50.871 32.1597 50.7574 32.2859 50.6186ZM39.2758 51.7639H38.2346V48.9905C38.2346 48.5298 38.1588 48.1922 38.0074 47.9777C37.8622 47.7631 37.6445 47.6559 37.3543 47.6559C37.1523 47.6559 36.9504 47.7063 36.7485 47.8073C36.5528 47.9083 36.3761 48.0471 36.2184 48.2238C36.0606 48.3942 35.947 48.5929 35.8776 48.8201V51.7639H34.8364V46.8134H35.783V47.8073C35.9092 47.5864 36.0732 47.3971 36.2752 47.2394C36.4834 47.0753 36.7169 46.9491 36.9756 46.8607C37.2344 46.7724 37.5089 46.7282 37.7991 46.7282C38.0957 46.7282 38.3387 46.7819 38.528 46.8891C38.7236 46.9964 38.8751 47.1447 38.9823 47.334C39.0959 47.517 39.1716 47.7316 39.2095 47.9777C39.2537 48.2175 39.2758 48.473 39.2758 48.7444V51.7639ZM42.7277 51.8586C42.3427 51.8586 41.9925 51.7923 41.677 51.6598C41.3678 51.521 41.0996 51.3348 40.8724 51.1013C40.6452 50.8615 40.4685 50.5902 40.3423 50.2873C40.2224 49.9781 40.1625 49.6499 40.1625 49.3029C40.1625 48.8359 40.2698 48.4099 40.4843 48.025C40.6989 47.6338 40.9986 47.3214 41.3836 47.0879C41.7685 46.8481 42.2197 46.7282 42.7371 46.7282C43.2546 46.7282 43.6995 46.8481 44.0718 47.0879C44.4504 47.3214 44.7438 47.6306 44.9521 48.0155C45.1603 48.4005 45.2644 48.8138 45.2644 49.2555C45.2644 49.3313 45.2613 49.4038 45.255 49.4732C45.2487 49.5363 45.2424 49.59 45.236 49.6342H41.27C41.2889 49.9244 41.3678 50.18 41.5066 50.4009C41.6517 50.6154 41.8347 50.7858 42.0556 50.912C42.2765 51.0319 42.5131 51.0919 42.7655 51.0919C43.0432 51.0919 43.3051 51.0224 43.5512 50.8836C43.8036 50.7448 43.974 50.5618 44.0623 50.3346L44.9521 50.5902C44.8448 50.83 44.6807 51.0477 44.4599 51.2433C44.2453 51.4326 43.9897 51.5841 43.6932 51.6977C43.3966 51.8049 43.0747 51.8586 42.7277 51.8586ZM41.2416 48.9432H44.2327C44.2138 48.6592 44.1317 48.4099 43.9866 48.1954C43.8478 47.9745 43.6679 47.8041 43.4471 47.6843C43.2325 47.558 42.9927 47.4949 42.7277 47.4949C42.4689 47.4949 42.2291 47.558 42.0083 47.6843C41.7937 47.8041 41.617 47.9745 41.4782 48.1954C41.3394 48.4099 41.2605 48.6592 41.2416 48.9432ZM45.5932 53.5718C45.366 53.5718 45.1514 53.5371 44.9495 53.4677C44.7412 53.3983 44.5582 53.291 44.4005 53.1459L44.8643 52.4454C44.94 52.5212 45.0347 52.5748 45.1483 52.6064C45.2555 52.6442 45.3628 52.6631 45.4701 52.6631C45.5963 52.6631 45.7099 52.6316 45.8109 52.5685C45.9181 52.5054 46.0033 52.417 46.0664 52.3035C46.1358 52.1962 46.1706 52.0763 46.1706 51.9438V46.8134H47.2118V51.868C47.2118 52.1962 47.136 52.4896 46.9846 52.7483C46.8395 53.0071 46.6438 53.209 46.3977 53.3541C46.1579 53.4993 45.8897 53.5718 45.5932 53.5718ZM46.1706 45.9994V44.854H47.2118V45.9994H46.1706ZM48.102 50.3157C48.102 50.0002 48.1903 49.7257 48.367 49.4922C48.55 49.2524 48.7993 49.0694 49.1148 48.9432C49.4303 48.8107 49.7963 48.7444 50.2128 48.7444C50.4337 48.7444 50.6577 48.7602 50.8849 48.7917C51.1183 48.8233 51.3234 48.8738 51.5001 48.9432V48.6308C51.5001 48.2837 51.396 48.0124 51.1877 47.8168C50.9795 47.6211 50.6798 47.5233 50.2885 47.5233C50.0109 47.5233 49.749 47.5738 49.5029 47.6748C49.2568 47.7694 48.9949 47.9051 48.7172 48.0818L48.367 47.3814C48.6951 47.1605 49.0233 46.9964 49.3514 46.8891C49.6859 46.7819 50.0361 46.7282 50.4021 46.7282C51.0647 46.7282 51.5853 46.9049 51.9639 47.2583C52.3489 47.6054 52.5413 48.1007 52.5413 48.7444V50.5902C52.5413 50.7101 52.5603 50.7953 52.5981 50.8458C52.6423 50.8962 52.7149 50.9246 52.8158 50.9309V51.7639C52.7212 51.7828 52.636 51.7955 52.5603 51.8018C52.4845 51.8081 52.4214 51.8112 52.3709 51.8112C52.1501 51.8112 51.9829 51.7576 51.8693 51.6503C51.7557 51.5431 51.6894 51.4168 51.6705 51.2717L51.6421 50.9877C51.4275 51.2654 51.153 51.4799 50.8186 51.6314C50.4841 51.7828 50.1465 51.8586 49.8058 51.8586C49.4776 51.8586 49.1842 51.7923 48.9255 51.6598C48.6668 51.521 48.4648 51.3348 48.3197 51.1013C48.1745 50.8678 48.102 50.606 48.102 50.3157ZM51.254 50.6186C51.3297 50.5365 51.3897 50.4545 51.4339 50.3725C51.478 50.2904 51.5001 50.2179 51.5001 50.1548V49.5868C51.3234 49.5174 51.1373 49.4669 50.9416 49.4354C50.746 49.3975 50.5536 49.3786 50.3642 49.3786C49.9856 49.3786 49.6764 49.4543 49.4366 49.6058C49.2031 49.7572 49.0864 49.9655 49.0864 50.2305C49.0864 50.3756 49.1243 50.5145 49.2 50.647C49.282 50.7795 49.3956 50.8868 49.5407 50.9688C49.6922 51.0508 49.8783 51.0919 50.0992 51.0919C50.3264 51.0919 50.5441 51.0477 50.7523 50.9593C50.9606 50.871 51.1278 50.7574 51.254 50.6186ZM61.377 51.7639H60.3358V48.9905C60.3358 48.5298 60.2601 48.1922 60.1086 47.9777C59.9572 47.7631 59.7363 47.6559 59.446 47.6559C59.1557 47.6559 58.8844 47.7663 58.632 47.9872C58.3859 48.2017 58.2123 48.4825 58.1114 48.8296V51.7639H57.0702V48.9905C57.0702 48.5298 56.9944 48.1922 56.843 47.9777C56.6915 47.7631 56.4738 47.6559 56.1899 47.6559C55.8996 47.6559 55.6282 47.7631 55.3758 47.9777C55.1297 48.1922 54.953 48.473 54.8458 48.8201V51.7639H53.8045V46.8134H54.7511V47.8073C54.9467 47.4602 55.2023 47.1952 55.5178 47.0122C55.8396 46.8229 56.2056 46.7282 56.6158 46.7282C57.026 46.7282 57.3478 46.8355 57.5813 47.0501C57.8211 47.2646 57.9694 47.5328 58.0262 47.8546C58.2407 47.4886 58.5026 47.211 58.8118 47.0217C59.1273 46.826 59.487 46.7282 59.8909 46.7282C60.1812 46.7282 60.4241 46.7819 60.6198 46.8891C60.8154 46.9964 60.9668 47.1447 61.0741 47.334C61.1814 47.517 61.2571 47.7316 61.3013 47.9777C61.3518 48.2175 61.377 48.473 61.377 48.7444V51.7639ZM64.8202 51.8586C64.4352 51.8586 64.085 51.7923 63.7695 51.6598C63.4603 51.521 63.1921 51.3348 62.9649 51.1013C62.7378 50.8615 62.5611 50.5902 62.4349 50.2873C62.315 49.9781 62.255 49.6499 62.255 49.3029C62.255 48.8359 62.3623 48.4099 62.5768 48.025C62.7914 47.6338 63.0911 47.3214 63.4761 47.0879C63.861 46.8481 64.3122 46.7282 64.8296 46.7282C65.3471 46.7282 65.792 46.8481 66.1643 47.0879C66.5429 47.3214 66.8363 47.6306 67.0446 48.0155C67.2528 48.4005 67.357 48.8138 67.357 49.2555C67.357 49.3313 67.3538 49.4038 67.3475 49.4732C67.3412 49.5363 67.3349 49.59 67.3286 49.6342H63.3625C63.3814 49.9244 63.4603 50.18 63.5991 50.4009C63.7443 50.6154 63.9273 50.7858 64.1481 50.912C64.369 51.0319 64.6056 51.0919 64.858 51.0919C65.1357 51.0919 65.3976 51.0224 65.6437 50.8836C65.8961 50.7448 66.0665 50.5618 66.1548 50.3346L67.0446 50.5902C66.9373 50.83 66.7732 51.0477 66.5524 51.2433C66.3378 51.4326 66.0823 51.5841 65.7857 51.6977C65.4891 51.8049 65.1673 51.8586 64.8202 51.8586ZM63.3341 48.9432H66.3252C66.3063 48.6592 66.2242 48.4099 66.0791 48.1954C65.9403 47.9745 65.7604 47.8041 65.5396 47.6843C65.325 47.558 65.0852 47.4949 64.8202 47.4949C64.5615 47.4949 64.3217 47.558 64.1008 47.6843C63.8862 47.8041 63.7096 47.9745 63.5707 48.1954C63.4319 48.4099 63.353 48.6592 63.3341 48.9432ZM72.6456 51.7639H71.6044V48.9905C71.6044 48.5298 71.5287 48.1922 71.3772 47.9777C71.2321 47.7631 71.0144 47.6559 70.7241 47.6559C70.5222 47.6559 70.3202 47.7063 70.1183 47.8073C69.9227 47.9083 69.746 48.0471 69.5882 48.2238C69.4305 48.3942 69.3169 48.5929 69.2475 48.8201V51.7639H68.2063V46.8134H69.1528V47.8073C69.279 47.5864 69.4431 47.3971 69.645 47.2394C69.8533 47.0753 70.0868 46.9491 70.3455 46.8607C70.6042 46.7724 70.8787 46.7282 71.169 46.7282C71.4656 46.7282 71.7085 46.7819 71.8978 46.8891C72.0935 46.9964 72.2449 47.1447 72.3522 47.334C72.4658 47.517 72.5415 47.7316 72.5794 47.9777C72.6235 48.2175 72.6456 48.473 72.6456 48.7444V51.7639ZM76.5717 51.5083C76.4833 51.5525 76.3729 51.5998 76.2404 51.6503C76.1079 51.7008 75.9564 51.745 75.7861 51.7828C75.622 51.8207 75.4516 51.8396 75.2749 51.8396C75.0604 51.8396 74.8616 51.8018 74.6786 51.7261C74.4956 51.6503 74.3473 51.5304 74.2337 51.3664C74.1264 51.196 74.0728 50.9783 74.0728 50.7132V47.618H73.4197V46.8134H74.0728V45.1853H75.114V46.8134H76.1931V47.618H75.114V50.3819C75.1266 50.5523 75.1803 50.6785 75.2749 50.7606C75.3759 50.8426 75.4989 50.8836 75.6441 50.8836C75.7892 50.8836 75.928 50.8584 76.0606 50.8079C76.1931 50.7574 76.2909 50.7164 76.354 50.6848L76.5717 51.5083ZM79.4526 51.8586C79.0613 51.8586 78.7111 51.7923 78.4019 51.6598C78.0927 51.521 77.8245 51.3317 77.5973 51.0919C77.3764 50.8521 77.2061 50.5807 77.0862 50.2778C76.9663 49.9686 76.9063 49.6405 76.9063 49.2934C76.9063 48.9463 76.9663 48.6182 77.0862 48.309C77.2061 47.9998 77.3764 47.7284 77.5973 47.4949C77.8245 47.2551 78.0927 47.069 78.4019 46.9365C78.7174 46.7976 79.0676 46.7282 79.4526 46.7282C79.8375 46.7282 80.1846 46.7976 80.4938 46.9365C80.8093 47.069 81.0775 47.2551 81.2983 47.4949C81.5255 47.7284 81.6991 47.9998 81.819 48.309C81.9389 48.6182 81.9988 48.9463 81.9988 49.2934C81.9988 49.6405 81.9389 49.9686 81.819 50.2778C81.6991 50.5807 81.5255 50.8521 81.2983 51.0919C81.0775 51.3317 80.8093 51.521 80.4938 51.6598C80.1846 51.7923 79.8375 51.8586 79.4526 51.8586ZM77.9759 49.3029C77.9759 49.6184 78.0422 49.9024 78.1747 50.1548C78.3072 50.4072 78.4839 50.606 78.7048 50.7511C78.9256 50.8962 79.1749 50.9688 79.4526 50.9688C79.7239 50.9688 79.97 50.8962 80.1909 50.7511C80.418 50.5996 80.5979 50.3977 80.7304 50.1453C80.8629 49.8866 80.9292 49.6026 80.9292 49.2934C80.9292 48.9779 80.8629 48.6939 80.7304 48.4415C80.5979 48.1891 80.418 47.9903 80.1909 47.8452C79.97 47.6937 79.7239 47.618 79.4526 47.618C79.1749 47.618 78.9256 47.6937 78.7048 47.8452C78.4839 47.9966 78.3072 48.1985 78.1747 48.451C78.0422 48.6971 77.9759 48.981 77.9759 49.3029ZM94.7481 51.7639V45.0434H95.8083V50.8268H99.4147V51.7639H94.7481ZM102.312 51.8586C101.921 51.8586 101.571 51.7923 101.262 51.6598C100.952 51.521 100.684 51.3317 100.457 51.0919C100.236 50.8521 100.066 50.5807 99.9459 50.2778C99.826 49.9686 99.7661 49.6405 99.7661 49.2934C99.7661 48.9463 99.826 48.6182 99.9459 48.309C100.066 47.9998 100.236 47.7284 100.457 47.4949C100.684 47.2551 100.952 47.069 101.262 46.9365C101.577 46.7976 101.927 46.7282 102.312 46.7282C102.697 46.7282 103.044 46.7976 103.354 46.9365C103.669 47.069 103.937 47.2551 104.158 47.4949C104.385 47.7284 104.559 47.9998 104.679 48.309C104.799 48.6182 104.859 48.9463 104.859 49.2934C104.859 49.6405 104.799 49.9686 104.679 50.2778C104.559 50.5807 104.385 50.8521 104.158 51.0919C103.937 51.3317 103.669 51.521 103.354 51.6598C103.044 51.7923 102.697 51.8586 102.312 51.8586ZM100.836 49.3029C100.836 49.6184 100.902 49.9024 101.034 50.1548C101.167 50.4072 101.344 50.606 101.565 50.7511C101.785 50.8962 102.035 50.9688 102.312 50.9688C102.584 50.9688 102.83 50.8962 103.051 50.7511C103.278 50.5996 103.458 50.3977 103.59 50.1453C103.723 49.8866 103.789 49.6026 103.789 49.2934C103.789 48.9779 103.723 48.6939 103.59 48.4415C103.458 48.1891 103.278 47.9903 103.051 47.8452C102.83 47.6937 102.584 47.618 102.312 47.618C102.035 47.618 101.785 47.6937 101.565 47.8452C101.344 47.9966 101.167 48.1985 101.034 48.451C100.902 48.6971 100.836 48.981 100.836 49.3029ZM107.741 51.8112C107.407 51.8112 107.101 51.745 106.823 51.6125C106.546 51.4736 106.306 51.2875 106.104 51.054C105.908 50.8205 105.754 50.5523 105.64 50.2494C105.533 49.9465 105.479 49.6279 105.479 49.2934C105.479 48.94 105.536 48.6087 105.65 48.2995C105.763 47.9903 105.921 47.719 106.123 47.4855C106.331 47.2457 106.574 47.0595 106.852 46.927C107.129 46.7945 107.438 46.7282 107.779 46.7282C108.177 46.7282 108.524 46.8229 108.82 47.0122C109.123 47.2015 109.373 47.4476 109.568 47.7505V46.8134H110.486V51.6219C110.486 52.1015 110.37 52.5085 110.136 52.843C109.909 53.1774 109.597 53.433 109.199 53.6097C108.802 53.7864 108.354 53.8747 107.855 53.8747C107.306 53.8747 106.852 53.7801 106.492 53.5908C106.132 53.4015 105.826 53.1427 105.574 52.8146L106.161 52.2656C106.35 52.5306 106.593 52.7326 106.889 52.8714C107.192 53.0102 107.514 53.0796 107.855 53.0796C108.139 53.0796 108.401 53.026 108.641 52.9187C108.887 52.8178 109.082 52.6568 109.227 52.436C109.373 52.2214 109.445 51.9501 109.445 51.6219V50.8647C109.269 51.1613 109.026 51.3948 108.716 51.5651C108.407 51.7292 108.082 51.8112 107.741 51.8112ZM108.082 50.9688C108.24 50.9688 108.391 50.9436 108.537 50.8931C108.682 50.8363 108.814 50.7637 108.934 50.6754C109.06 50.5807 109.168 50.4766 109.256 50.363C109.344 50.2431 109.407 50.1169 109.445 49.9844V48.6876C109.363 48.473 109.246 48.2869 109.095 48.1291C108.944 47.9651 108.773 47.8389 108.584 47.7505C108.395 47.6622 108.202 47.618 108.006 47.618C107.779 47.618 107.574 47.6685 107.391 47.7694C107.214 47.8641 107.063 47.9935 106.937 48.1575C106.811 48.3153 106.713 48.4951 106.643 48.6971C106.574 48.899 106.539 49.1072 106.539 49.3218C106.539 49.549 106.577 49.7604 106.653 49.956C106.735 50.1516 106.845 50.3283 106.984 50.4861C107.123 50.6375 107.287 50.7574 107.476 50.8458C107.666 50.9278 107.868 50.9688 108.082 50.9688ZM111.735 51.7639V46.8134H112.776V51.7639H111.735ZM112.615 46.1035L111.934 45.8953L112.473 44.854H113.467L112.615 46.1035ZM115.788 51.8586C115.372 51.8586 114.977 51.7923 114.605 51.6598C114.233 51.521 113.914 51.3159 113.649 51.0445L114.037 50.3441C114.321 50.5965 114.605 50.7795 114.889 50.8931C115.179 51.0067 115.466 51.0635 115.75 51.0635C116.04 51.0635 116.277 51.0098 116.46 50.9025C116.643 50.789 116.735 50.6249 116.735 50.4103C116.735 50.2526 116.687 50.1358 116.593 50.0601C116.498 49.9844 116.359 49.9181 116.176 49.8613C115.999 49.8045 115.785 49.7414 115.532 49.672C115.179 49.5647 114.882 49.4543 114.643 49.3407C114.403 49.2208 114.223 49.0757 114.103 48.9053C113.983 48.7349 113.923 48.5172 113.923 48.2522C113.923 47.9304 114.005 47.6559 114.169 47.4287C114.333 47.2015 114.561 47.028 114.851 46.9081C115.148 46.7882 115.488 46.7282 115.873 46.7282C116.233 46.7282 116.564 46.785 116.867 46.8986C117.176 47.0059 117.448 47.1763 117.681 47.4098L117.236 48.1007C117.015 47.8988 116.788 47.7505 116.555 47.6559C116.328 47.5612 116.081 47.5139 115.816 47.5139C115.665 47.5139 115.52 47.5328 115.381 47.5707C115.242 47.6022 115.125 47.6653 115.031 47.76C114.942 47.8483 114.898 47.9745 114.898 48.1386C114.898 48.2711 114.936 48.3784 115.012 48.4604C115.088 48.5425 115.201 48.6119 115.353 48.6687C115.504 48.7255 115.69 48.7886 115.911 48.858C116.296 48.9716 116.624 49.0852 116.896 49.1987C117.167 49.306 117.375 49.448 117.52 49.6247C117.672 49.7951 117.747 50.0317 117.747 50.3346C117.747 50.8142 117.568 51.1897 117.208 51.461C116.854 51.7261 116.381 51.8586 115.788 51.8586ZM121.422 51.5083C121.334 51.5525 121.223 51.5998 121.091 51.6503C120.958 51.7008 120.807 51.745 120.637 51.7828C120.473 51.8207 120.302 51.8396 120.125 51.8396C119.911 51.8396 119.712 51.8018 119.529 51.7261C119.346 51.6503 119.198 51.5304 119.084 51.3664C118.977 51.196 118.923 50.9783 118.923 50.7132V47.618H118.27V46.8134H118.923V45.1853H119.965V46.8134H121.044V47.618H119.965V50.3819C119.977 50.5523 120.031 50.6785 120.125 50.7606C120.226 50.8426 120.349 50.8836 120.495 50.8836C120.64 50.8836 120.779 50.8584 120.911 50.8079C121.044 50.7574 121.141 50.7164 121.205 50.6848L121.422 51.5083ZM122.143 51.7639V46.8134H123.185V51.7639H122.143ZM122.143 45.9994V44.854H123.185V45.9994H122.143ZM126.679 51.8586C126.294 51.8586 125.944 51.7923 125.629 51.6598C125.319 51.521 125.051 51.3317 124.824 51.0919C124.597 50.8521 124.42 50.5776 124.294 50.2684C124.174 49.9591 124.114 49.631 124.114 49.2839C124.114 48.817 124.218 48.391 124.426 48.0061C124.641 47.6211 124.938 47.3119 125.316 47.0785C125.701 46.845 126.155 46.7282 126.679 46.7282C127.184 46.7282 127.623 46.8418 127.995 47.069C128.374 47.2899 128.651 47.5864 128.828 47.9588L127.815 48.2806C127.701 48.0723 127.541 47.9114 127.332 47.7978C127.13 47.6779 126.906 47.618 126.66 47.618C126.383 47.618 126.13 47.6906 125.903 47.8357C125.682 47.9745 125.505 48.1702 125.373 48.4226C125.247 48.6687 125.184 48.9558 125.184 49.2839C125.184 49.5995 125.25 49.8866 125.382 50.1453C125.515 50.3977 125.692 50.5996 125.913 50.7511C126.14 50.8962 126.392 50.9688 126.67 50.9688C126.84 50.9688 127.004 50.9404 127.162 50.8836C127.326 50.8205 127.468 50.7385 127.588 50.6375C127.708 50.5302 127.793 50.4135 127.843 50.2873L128.866 50.5902C128.758 50.8363 128.598 51.054 128.383 51.2433C128.175 51.4326 127.926 51.5841 127.635 51.6977C127.351 51.8049 127.033 51.8586 126.679 51.8586ZM131.901 51.8586C131.51 51.8586 131.16 51.7923 130.851 51.6598C130.542 51.521 130.273 51.3317 130.046 51.0919C129.825 50.8521 129.655 50.5807 129.535 50.2778C129.415 49.9686 129.355 49.6405 129.355 49.2934C129.355 48.9463 129.415 48.6182 129.535 48.309C129.655 47.9998 129.825 47.7284 130.046 47.4949C130.273 47.2551 130.542 47.069 130.851 46.9365C131.166 46.7976 131.517 46.7282 131.901 46.7282C132.286 46.7282 132.633 46.7976 132.943 46.9365C133.258 47.069 133.526 47.2551 133.747 47.4949C133.974 47.7284 134.148 47.9998 134.268 48.309C134.388 48.6182 134.448 48.9463 134.448 49.2934C134.448 49.6405 134.388 49.9686 134.268 50.2778C134.148 50.5807 133.974 50.8521 133.747 51.0919C133.526 51.3317 133.258 51.521 132.943 51.6598C132.633 51.7923 132.286 51.8586 131.901 51.8586ZM130.425 49.3029C130.425 49.6184 130.491 49.9024 130.624 50.1548C130.756 50.4072 130.933 50.606 131.154 50.7511C131.375 50.8962 131.624 50.9688 131.901 50.9688C132.173 50.9688 132.419 50.8962 132.64 50.7511C132.867 50.5996 133.047 50.3977 133.179 50.1453C133.312 49.8866 133.378 49.6026 133.378 49.2934C133.378 48.9779 133.312 48.6939 133.179 48.4415C133.047 48.1891 132.867 47.9903 132.64 47.8452C132.419 47.6937 132.173 47.618 131.901 47.618C131.624 47.618 131.375 47.6937 131.154 47.8452C130.933 47.9966 130.756 48.1985 130.624 48.451C130.491 48.6971 130.425 48.981 130.425 49.3029Z" fill="#FF681E"/>
<defs>
<clipPath id="clip0_109_2">
<rect width="135" height="49.7823" fill="white"/>
</clipPath>
</defs>
</svg>
